<svg width="43" height="43" viewBox="0 0 43 43" fill="none" xmlns="http://www.w3.org/2000/svg">
<g clip-path="url(#clip0_214_1083)">
<path fill-rule="evenodd" clip-rule="evenodd" d="M21.5 1C10.1782 1 1 10.1782 1 21.5C1 32.8218 10.1782 42 21.5 42C32.8218 42 42 32.8218 42 21.5C42 10.1782 32.8218 1 21.5 1ZM21.5 0C9.62588 0 0 9.62588 0 21.5C0 33.3741 9.62588 43 21.5 43C33.3741 43 43 33.3741 43 21.5C43 9.62588 33.3741 0 21.5 0Z" fill="white"/>
<path d="M30.3965 21.1294L17.6077 28.513V13.7458L30.3965 21.1294Z" fill="white"/>
</g>
<defs>
<clipPath id="clip0_214_1083">
<rect width="43" height="43" fill="white"/>
</clipPath>
</defs>
</svg>
