<svg width="15" height="14" viewBox="0 0 15 14" fill="none" xmlns="http://www.w3.org/2000/svg">
<path d="M2.3044 0.412215C1.89617 0.0402298 1.26369 0.0696064 0.891707 0.477829C0.519722 0.886052 0.549099 1.51853 0.957321 1.89052L2.3044 0.412215ZM13.4163 12.8473C13.968 12.8217 14.3945 12.3537 14.3689 11.802L13.9513 2.81166C13.9257 2.25997 13.4577 1.83351 12.906 1.85913C12.3543 1.88476 11.9278 2.35276 11.9534 2.90445L12.3246 10.8958L4.33323 11.267C3.78154 11.2926 3.35508 11.7606 3.3807 12.3123C3.40632 12.864 3.87433 13.2905 4.42602 13.2649L13.4163 12.8473ZM0.957321 1.89052L12.6964 12.5875L14.0435 11.1092L2.3044 0.412215L0.957321 1.89052Z" fill="#FF6502"/>
</svg>
