<svg width="172" height="245" viewBox="0 0 172 245" fill="none" xmlns="http://www.w3.org/2000/svg">
<path fill-rule="evenodd" clip-rule="evenodd" d="M107.464 0.332827C109.441 0.770648 110.689 2.72747 110.252 4.7036L93.2519 81.4751L138.362 52.6567C140.068 51.5665 142.335 52.0656 143.426 53.7712C144.516 55.4766 144.018 57.7429 142.311 58.8328L97.1764 87.6676L163.243 102.297C165.22 102.735 166.468 104.692 166.031 106.668C165.593 108.644 163.636 109.891 161.658 109.453L95.5926 94.824L124.335 140.017C125.421 141.725 124.917 143.99 123.208 145.076C121.499 146.161 119.233 145.657 118.147 143.948L89.4201 98.78L68.0969 195.077C67.6593 197.054 65.702 198.301 63.7248 197.863C61.7478 197.425 60.4997 195.468 60.9373 193.492L82.26 97.197L37.1534 126.014C35.4472 127.104 33.1801 126.604 32.0894 124.899C30.9986 123.193 31.4973 120.927 33.2035 119.838L78.3378 91.0033L12.2671 76.3732C10.2901 75.9354 9.04207 73.9785 9.47963 72.0024C9.91719 70.0263 11.8747 68.7792 13.8517 69.217L79.9228 83.8472L51.1801 38.6535C50.0935 36.9453 50.5981 34.6802 52.307 33.5948C54.0158 32.509 56.2816 33.0137 57.3681 34.7222L86.0929 79.8874L103.092 3.11825C103.53 1.14212 105.487 -0.10494 107.464 0.332827ZM16.6414 138.412C18.2936 137.242 18.6842 134.955 17.5135 133.303C16.3429 131.651 14.0545 131.261 12.4023 132.43L2.30145 139.582C0.649194 140.752 0.258873 143.039 1.42954 144.691C2.59997 146.343 4.88857 146.733 6.54082 145.563L16.6414 138.412ZM171.2 36.0247C172.291 37.7304 171.792 39.9965 170.086 41.0865L160.165 47.4244C158.459 48.5142 156.192 48.0152 155.101 46.3096C154.01 44.6042 154.509 42.3379 156.215 41.248L166.136 34.9102C167.842 33.8203 170.109 34.3193 171.2 36.0247ZM60.891 227.62C61.3285 225.644 60.0807 223.687 58.1035 223.249C56.1265 222.811 54.1689 224.059 53.7314 226.035L50.4889 240.678C50.051 242.655 51.2994 244.611 53.2764 245.049C55.2536 245.487 57.2106 244.241 57.6485 242.263L60.891 227.62Z" fill="#FF6502"/>
</svg>
