<svg width="45" height="58" viewBox="0 0 45 58" fill="none" xmlns="http://www.w3.org/2000/svg">
<g clip-path="url(#clip0_214_1053)">
<path d="M36.8725 47.8363C36.5231 48.6963 36.6575 52.0828 37.0337 52.5666C37.5981 53.2653 38.6462 53.1307 38.8343 52.3513C39.4256 49.9594 37.6518 45.8745 36.8725 47.8363Z" fill="#FF6502"/>
<path d="M7.63219 14.6466C7.47094 15.829 7.55162 18.8927 7.60537 20.7202C7.63225 21.2846 8.06222 21.7146 8.59971 21.7683C10.1585 21.9027 10.481 18.9465 9.48661 14.0822C9.24474 12.8728 7.84719 13.276 7.63219 14.6466Z" fill="#FF6502"/>
<path d="M13.8685 12.1459C16.1797 12.1459 17.4697 11.7966 17.4697 11.1516C17.4697 10.3185 15.5347 10.1035 12.6322 10.5603C9.51474 11.0978 10.3479 12.1459 13.8685 12.1459Z" fill="#FF6502"/>
<path d="M7.57952 0.241652C6.93452 0.510401 7.12265 8.84155 7.76764 9.19092C9.54141 10.1315 10.3208 9.0835 10.1058 6.18102C9.59516 0.134179 9.35329 -0.483969 7.57952 0.241652Z" fill="#FF6502"/>
<path d="M2.25746 10.5074C0.456846 10.7224 0 10.9104 0 11.4748C0 12.3616 5.37497 12.5766 6.63809 11.7435C8.14308 10.7491 5.80494 10.0774 2.25746 10.5074Z" fill="#FF6502"/>
<path d="M37.1694 44.3434C37.6532 44.2896 38.0294 43.9134 38.0294 43.4296C38.1638 40.2584 38.2713 38.1622 36.3094 38.9415C35.9332 39.1028 35.8526 41.0915 36.1482 43.1878C36.3363 44.3971 36.3632 44.424 37.1694 44.3434Z" fill="#FF6502"/>
<path d="M39.2905 45.4993C38.4574 45.8487 38.538 46.4934 39.4517 46.6815C40.258 46.8696 43.4292 46.413 44.0473 46.0368C45.1761 45.3112 40.903 44.8274 39.2905 45.4993Z" fill="#FF6502"/>
<path d="M35.6096 45.4709C34.7496 45.1484 34.5614 45.1484 33.1908 45.5515C31.1215 46.1697 31.9815 47.0028 34.3733 46.6803C36.0396 46.4653 36.6308 45.874 35.6096 45.4709Z" fill="#FF6502"/>
<path d="M32.4913 32.8134C33.1632 31.6846 32.9482 30.2602 32.0075 29.3734C29.6694 27.1696 27.4119 23.4072 26.0951 19.5103C25.3426 17.3334 23.3538 8.5992 23.3538 7.49734C23.3538 6.09984 21.822 5.40104 20.8545 6.36854C20.6395 6.58354 20.3707 7.52424 20.2901 8.46486C19.7795 13.1948 16.9845 23.9178 15.3989 27.1428C14.6195 28.7284 13.007 30.2603 11.3139 31.0127C9.86267 31.6577 9.86267 31.7652 11.6633 33.324C15.2376 36.4415 17.8714 42.5958 19.7257 52.217C21.392 60.8438 24.3213 58.0488 23.9988 56.302C23.327 52.9157 27.2776 41.5477 31.7925 33.969L32.4913 32.8134ZM29.0513 31.7115C26.4445 35.044 23.6226 40.2577 22.2788 44.262L21.6607 46.1433L21.3114 44.3964C18.8657 32.5446 13.8939 31.9534 13.3564 31.4427C13.9476 30.8246 19.2957 27.4653 21.7682 19.7253C22.5207 17.3872 22.3863 17.3872 23.112 19.5909C24.4826 23.7565 26.3907 27.1428 28.5944 29.4003L29.8576 30.6902L29.0513 31.7115Z" fill="#FF6502"/>
</g>
<defs>
<clipPath id="clip0_214_1053">
<rect width="45" height="58" fill="white"/>
</clipPath>
</defs>
</svg>
