<svg width="58" height="62" viewBox="0 0 58 62" fill="none" xmlns="http://www.w3.org/2000/svg">
<g clip-path="url(#clip0_214_1054)">
<path d="M44.4779 16.7608C55.3444 7.66416 59.5016 3.05409 57.5259 2.31319C56.4969 1.94274 56.0441 2.02503 54.233 2.88941C50.7344 4.61817 38.0156 15.4848 38.0156 16.7608C38.0156 18.5307 42.2964 18.5719 44.4779 16.7608Z" fill="white"/>
<path d="M15.9516 17.0904C17.3099 16.1848 17.2276 16.0202 11.959 10.2988C9.16005 7.21155 6.8552 5.27699 5.1676 4.53609C2.86258 3.50706 1.7512 4.90662 2.65674 6.05913C10.3949 16.0202 13.6054 18.6545 15.9516 17.0904Z" fill="white"/>
<path d="M52.5856 30.5085C50.0747 29.7676 37.2329 25.6927 36.2862 25.3222C35.8335 25.1576 35.5042 24.3343 35.3395 22.9349C33.9812 12.48 31.8404 1.73673 30.8937 0.54306C30.194 -0.362481 27.8067 -0.0743542 27.1481 0.95467C26.4895 1.98369 23.4436 12.3977 21.6325 19.9713L20.4393 24.9106C-2.94031 32.3196 -4.21638 32.1549 6.36198 35.4066L15.7058 38.2879C21.0155 39.9343 21.1386 39.9751 21.4267 41.2922C21.8383 43.1856 24.5138 52.4061 25.5428 56.8103C27.7244 66.2774 32.1701 60.4325 36.0804 42.8156L36.986 38.7818C37.4799 38.6995 40.6077 38.4114 54.1085 35.489C57.1956 34.7892 56.2901 31.5787 52.5856 30.5085ZM46.7407 32.5254C46.4114 32.8135 37.3972 34.995 35.6273 34.995C33.4869 34.995 32.993 36.0241 30.5645 45.6969C28.9592 52.0768 28.8361 52.1999 27.9306 48.4954C26.8192 43.8442 24.555 38.4114 24.2668 37.1354C24.0199 35.9829 21.7149 35.1597 12.7829 33.0193C8.29659 31.9491 7.59685 31.5787 9.28425 31.0847C11.3835 30.4673 21.4679 27.1744 22.6204 27.1744C23.7317 27.1744 24.6784 26.3512 25.0077 25.1164L28.2183 12.6035C28.7945 10.4219 28.7949 10.4219 30.4002 18.9423C32.2525 28.5328 32.0463 28.1207 35.0098 28.7381C38.7143 29.5202 47.1112 32.1961 46.7407 32.5254Z" fill="white"/>
<path d="M39.25 43.4742C39.25 44.3798 50.1165 55.3698 51.6394 55.9872C54.85 57.3043 55.6732 55.5751 53.1212 52.8174C46.2474 45.2849 39.25 40.593 39.25 43.4742Z" fill="white"/>
<path d="M7.55456 46.1084C-0.348343 51.4593 -1.25393 52.6942 2.69753 52.6942C4.63209 52.6942 16.8567 44.215 16.4863 43.1037C15.91 41.3749 13.1522 42.2804 7.55456 46.1084Z" fill="white"/>
</g>
<defs>
<clipPath id="clip0_214_1054">
<rect width="58" height="62" fill="white"/>
</clipPath>
</defs>
</svg>
