<svg width="56" height="57" viewBox="0 0 56 57" fill="none" xmlns="http://www.w3.org/2000/svg">
<g clip-path="url(#clip0_214_1055)">
<path d="M15.099 48.4302C13.9487 47.5866 12.4916 47.97 10.8811 49.5294C8.65718 51.6511 8.58052 52.4691 10.5744 52.5202C12.3638 52.5713 16.1215 49.1715 15.099 48.4302Z" fill="#FF6502"/>
<path d="M14.9714 44.1105C14.9714 43.4459 12.5941 42.7557 11.6482 43.1647C10.0634 43.8293 1.14199 50.8335 0.502921 51.0891C-1.05641 51.7026 1.34649 52.9552 3.13589 52.4695C4.77191 52.0094 14.9714 44.8262 14.9714 44.1105Z" fill="#FF6502"/>
<path d="M7.60884 18.0097C9.52605 18.0353 10.0373 17.3706 8.8358 16.3737C6.50959 14.4054 4.69468 13.7407 3.26316 14.3543C1.57602 15.0444 5.027 17.9586 7.60884 18.0097Z" fill="#FF6502"/>
<path d="M37.4916 20.7195C38.8719 20.7451 41.4538 19.1346 41.3004 18.3422C41.0192 16.9107 38.1562 16.9107 36.6224 18.3422C34.9608 19.876 35.242 20.694 37.4916 20.7195Z" fill="#FF6502"/>
<path d="M13.2851 17.2684C15.7902 17.7285 15.6113 16.5015 12.5183 12.1047C6.81776 4.00133 4.90053 1.95631 3.5457 2.51869C1.73074 3.23445 10.6777 16.7572 13.2851 17.2684Z" fill="#FF6502"/>
<path d="M52.1657 13.4088C50.9132 13.9456 41.5827 20.1318 39.2565 21.9468C38.7453 22.3558 40.5091 23.0715 41.8128 22.9693C43.1165 22.867 43.6022 22.6114 48.8426 19.1604C51.9357 17.1154 54.7987 15.2492 55.1821 15.0192C57.0227 13.8689 54.3641 12.463 52.1657 13.4088Z" fill="#FF6502"/>
<path d="M41.9916 46.3589C40.6112 45.0808 38.694 44.365 38.1571 44.9274C37.8248 45.2597 38.5406 46.0777 39.8443 46.8191C41.9404 48.0205 43.4486 47.6882 41.9916 46.3589Z" fill="#FF6502"/>
<path d="M38.437 32.5299C39.8174 31.8142 39.7918 31.6097 38.2325 30.0759C33.4523 25.3979 29.4645 14.6104 28.5698 4.02741C28.2374 0.218552 24.6842 -3.3858 22.7926 5.68899C20.3897 17.1411 14.7148 28.7978 10.9571 29.9992C8.42636 30.8172 8.70757 32.5299 11.3661 32.5299C15.3027 32.5299 17.7056 36.0831 19.2393 44.2632C20.2363 49.5803 21.9234 57.8115 22.0768 58.2461C22.4603 59.2686 25.9624 60.9302 26.8826 54.1305C28.1608 44.5189 33.1711 35.214 38.437 32.5299ZM34.0146 31.354C29.7968 34.3449 25.63 40.1476 24.5564 44.57C24.3008 45.5925 24.0196 45.4391 23.8151 44.1865C22.8181 37.7958 20.6964 33.9614 17.1176 31.942L15.7372 31.1495C19.4183 27.2384 21.0799 25.8325 25.3489 13.8436C25.5278 13.3323 25.5534 13.409 26.4736 16.5021C28.1863 22.3815 30.3336 26.5738 33.0944 29.4624C34.4748 30.945 34.5003 31.0217 34.0146 31.354Z" fill="#FF6502"/>
<path d="M33.5561 46.8189C32.8148 47.2534 33.0193 47.6624 35.1922 50.4232C39.001 55.2546 41.0205 56.6861 42.2731 55.4335C42.861 54.8456 42.5542 54.3088 39.7679 50.8834C36.3169 46.6399 35.1666 45.8986 33.5561 46.8189Z" fill="#FF6502"/>
</g>
<defs>
<clipPath id="clip0_214_1055">
<rect width="56" height="57" fill="white"/>
</clipPath>
</defs>
</svg>
