<svg width="76" height="17" viewBox="0 0 76 17" fill="none" xmlns="http://www.w3.org/2000/svg">
<path d="M16.3454 1.80841C17.8175 2.5048 18.8972 4.03032 19.6687 5.66364C20.5381 7.08968 21.3096 8.723 22.3894 10.2485C24.3386 13.2001 26.6235 13.2663 28.8233 10.2483C29.5239 9.31133 30.0142 8.27492 30.4065 7.44579C31.0929 5.99482 31.8916 4.85061 32.9986 3.5986C36.1235 0.257152 40.1746 0.397936 43.1753 3.84692C44.3531 5.16516 44.9143 6.69899 45.7838 8.12503C46.8777 10.1646 47.6775 12.826 50.481 12.8839C53.2845 12.9419 54.0406 10.2555 55.2315 8.28217C56.2263 6.7234 56.9127 5.27243 58.1178 3.81314C60.8363 0.786769 64.9855 0.720271 67.8739 3.86249C69.2621 5.28021 70.0335 6.91353 71.0152 8.64634C71.9969 10.3791 72.6703 12.2197 74.7732 13.2146C75.6144 13.6125 75.7407 14.4333 75.6568 15.1547C75.6852 16.1828 75.1807 16.7051 74.0312 16.415C72.2508 15.8264 70.9749 14.7154 69.8951 13.1899C69.0256 11.7639 68.3664 10.4373 67.497 9.01129C66.95 7.9915 66.403 6.97172 65.758 6.15921C64.2576 4.43472 62.4914 4.36017 60.978 5.92726C60.0671 6.7647 59.2684 7.90891 58.6801 9.1526C58.0917 10.3963 57.4053 11.8473 56.3963 12.892C53.2997 17.2615 48.4217 17.2369 45.2946 12.9671C44.2148 11.4415 43.4433 9.80822 42.5739 8.38219C41.5921 6.64938 40.8065 4.50201 38.5217 4.43578C36.2368 4.36954 35.2562 6.44236 34.1634 8.20842C33.2666 9.55991 32.5802 11.0109 31.7816 12.1551C28.4888 16.9392 23.3024 17.0223 19.9509 12.139C18.7589 10.3067 17.8752 8.36662 16.8935 6.63382C14.7198 3.06872 12.1266 3.11028 10.0389 6.43511C9.04415 7.99388 8.35771 9.44486 7.36293 11.0036C6.36814 12.5624 5.16307 14.0217 3.31296 14.6685C2.69625 14.8841 1.67314 15.4147 1.23839 14.7017C0.59336 13.8892 0.550863 12.3471 1.26563 11.9242C4.64333 10.2244 5.48339 6.81669 7.27684 4.11371C9.36447 0.788887 12.7563 -0.396885 16.3454 1.80841Z" fill="#6FBAFF"/>
</svg>
